<?xml version="1.0" encoding="UTF-8" standalone="no"?>
<!DOCTYPE svg PUBLIC "-//W3C//DTD SVG 1.1//EN"
 "http://www.w3.org/Graphics/SVG/1.1/DTD/svg11.dtd">
<!-- Generated by graphviz version 12.0.0 (0)
 -->
<!-- Pages: 1 -->
<svg width="700pt" height="1040pt"
 viewBox="0.00 0.00 700.00 1039.98" xmlns="http://www.w3.org/2000/svg" xmlns:xlink="http://www.w3.org/1999/xlink">
<g id="graph0" class="graph" transform="scale(1 1) rotate(0) translate(4 1035.98)">
<polygon fill="white" stroke="none" points="-4,4 -4,-1035.98 696,-1035.98 696,4 -4,4"/>
<!-- CatOnDuty.Employees.Sentry -->
<g id="node1" class="node">
<title>CatOnDuty.Employees.Sentry</title>
<text text-anchor="start" x="27.75" y="-285.88" font-family="Roboto Mono" font-size="18.00"> &#160;&#160;CatOnDuty.Employees.Sentry &#160;&#160;</text>
<polyline fill="none" stroke="black" points="24,-244.98 306,-244.98"/>
<text text-anchor="start" x="141.38" y="-256.68" font-family="Roboto Mono" font-style="italic" font-size="14.00">sentries</text>
<text text-anchor="start" x="28" y="-228.68" font-family="Roboto Mono" font-size="14.00">:id &#160;&#160;&#160;&#160;&#160;&#160;&#160;&#160;&#160;&#160;&#160;&#160;&#160;&#160;</text>
<text text-anchor="start" x="100" y="-228.68" font-family="Roboto Mono" font-style="italic" font-size="14.00" fill="#8a8a8a">:id &#160;&#160;&#160;&#160;&#160;&#160;&#160;&#160;&#160;&#160;&#160;&#160;&#160;&#160;&#160;&#160;</text>
<text text-anchor="start" x="28" y="-201.68" font-family="Roboto Mono" font-size="14.00">:name &#160;&#160;&#160;&#160;&#160;&#160;&#160;&#160;&#160;&#160;&#160;&#160;</text>
<text text-anchor="start" x="118" y="-201.68" font-family="Roboto Mono" font-style="italic" font-size="14.00" fill="#8a8a8a">:string &#160;&#160;&#160;&#160;&#160;&#160;&#160;&#160;&#160;&#160;&#160;&#160;</text>
<text text-anchor="start" x="28" y="-174.68" font-family="Roboto Mono" font-size="14.00">:tg_username &#160;&#160;&#160;&#160;&#160;</text>
<text text-anchor="start" x="141.25" y="-174.68" font-family="Roboto Mono" font-style="italic" font-size="14.00" fill="#8a8a8a">:string &#160;&#160;&#160;&#160;&#160;&#160;&#160;&#160;&#160;&#160;&#160;&#160;</text>
<text text-anchor="start" x="28" y="-147.68" font-family="Roboto Mono" font-size="14.00">:on_vacation? &#160;&#160;&#160;&#160;</text>
<text text-anchor="start" x="134.5" y="-147.68" font-family="Roboto Mono" font-style="italic" font-size="14.00" fill="#8a8a8a">:boolean &#160;&#160;&#160;&#160;&#160;&#160;&#160;&#160;&#160;&#160;&#160;</text>
<text text-anchor="start" x="28" y="-120.68" font-family="Roboto Mono" font-size="14.00">:last_duty_at &#160;&#160;&#160;&#160;</text>
<text text-anchor="start" x="128.5" y="-120.68" font-family="Roboto Mono" font-style="italic" font-size="14.00" fill="#8a8a8a">:utc_datetime &#160;&#160;&#160;&#160;&#160;&#160;</text>
<text text-anchor="start" x="28" y="-93.68" font-family="Roboto Mono" font-size="14.00">:team_id &#160;&#160;&#160;&#160;&#160;&#160;&#160;&#160;&#160;</text>
<text text-anchor="start" x="121" y="-93.68" font-family="Roboto Mono" font-style="italic" font-size="14.00" fill="#8a8a8a">:id &#160;&#160;&#160;&#160;&#160;&#160;&#160;&#160;&#160;&#160;&#160;&#160;&#160;&#160;&#160;&#160;</text>
<text text-anchor="start" x="28" y="-66.68" font-family="Roboto Mono" font-size="14.00">:inserted_at &#160;&#160;&#160;&#160;&#160;</text>
<text text-anchor="start" x="128.5" y="-66.68" font-family="Roboto Mono" font-style="italic" font-size="14.00" fill="#8a8a8a">:naive_datetime &#160;&#160;&#160;&#160;</text>
<text text-anchor="start" x="28" y="-39.68" font-family="Roboto Mono" font-size="14.00">:updated_at &#160;&#160;&#160;&#160;&#160;&#160;</text>
<text text-anchor="start" x="131.5" y="-39.68" font-family="Roboto Mono" font-style="italic" font-size="14.00" fill="#8a8a8a">:naive_datetime &#160;&#160;&#160;&#160;</text>
<path fill="none" stroke="black" d="M35,-27.98C35,-27.98 295,-27.98 295,-27.98 301,-27.98 307,-33.98 307,-39.98 307,-39.98 307,-295.98 307,-295.98 307,-301.98 301,-307.98 295,-307.98 295,-307.98 35,-307.98 35,-307.98 29,-307.98 23,-301.98 23,-295.98 23,-295.98 23,-39.98 23,-39.98 23,-33.98 29,-27.98 35,-27.98"/>
</g>
<!-- CatOnDuty.Employees.Team -->
<g id="node2" class="node">
<title>CatOnDuty.Employees.Team</title>
<text text-anchor="start" x="414.62" y="-258.88" font-family="Roboto Mono" font-size="18.00"> &#160;&#160;CatOnDuty.Employees.Team &#160;&#160;</text>
<polyline fill="none" stroke="black" points="411,-217.98 683,-217.98"/>
<text text-anchor="start" x="528.25" y="-229.68" font-family="Roboto Mono" font-style="italic" font-size="14.00">teams</text>
<text text-anchor="start" x="415" y="-201.68" font-family="Roboto Mono" font-size="14.00">:id &#160;&#160;&#160;&#160;&#160;&#160;&#160;&#160;&#160;&#160;&#160;&#160;&#160;&#160;&#160;&#160;&#160;</text>
<text text-anchor="start" x="498.25" y="-201.68" font-family="Roboto Mono" font-style="italic" font-size="14.00" fill="#8a8a8a">:id &#160;&#160;&#160;&#160;&#160;&#160;&#160;&#160;&#160;&#160;&#160;&#160;&#160;&#160;&#160;&#160;</text>
<text text-anchor="start" x="415" y="-174.68" font-family="Roboto Mono" font-size="14.00">:name &#160;&#160;&#160;&#160;&#160;&#160;&#160;&#160;&#160;&#160;&#160;&#160;&#160;&#160;&#160;</text>
<text text-anchor="start" x="516.25" y="-174.68" font-family="Roboto Mono" font-style="italic" font-size="14.00" fill="#8a8a8a">:string &#160;&#160;&#160;&#160;&#160;&#160;&#160;&#160;&#160;&#160;&#160;&#160;</text>
<text text-anchor="start" x="415" y="-147.68" font-family="Roboto Mono" font-size="14.00">:tg_chat_id &#160;&#160;&#160;&#160;&#160;&#160;&#160;&#160;&#160;</text>
<text text-anchor="start" x="522.25" y="-147.68" font-family="Roboto Mono" font-style="italic" font-size="14.00" fill="#8a8a8a">:string &#160;&#160;&#160;&#160;&#160;&#160;&#160;&#160;&#160;&#160;&#160;&#160;</text>
<text text-anchor="start" x="415" y="-120.68" font-family="Roboto Mono" font-size="14.00">:today_sentry_id &#160;&#160;&#160;&#160;</text>
<text text-anchor="start" x="541" y="-120.68" font-family="Roboto Mono" font-style="italic" font-size="14.00" fill="#8a8a8a">:id &#160;&#160;&#160;&#160;&#160;&#160;&#160;&#160;&#160;&#160;&#160;&#160;&#160;&#160;&#160;&#160;</text>
<text text-anchor="start" x="415" y="-93.68" font-family="Roboto Mono" font-size="14.00">:inserted_at &#160;&#160;&#160;&#160;&#160;&#160;&#160;&#160;</text>
<text text-anchor="start" x="526.75" y="-93.68" font-family="Roboto Mono" font-style="italic" font-size="14.00" fill="#8a8a8a">:naive_datetime &#160;&#160;&#160;&#160;</text>
<text text-anchor="start" x="415" y="-66.68" font-family="Roboto Mono" font-size="14.00">:updated_at &#160;&#160;&#160;&#160;&#160;&#160;&#160;&#160;&#160;</text>
<text text-anchor="start" x="529.75" y="-66.68" font-family="Roboto Mono" font-style="italic" font-size="14.00" fill="#8a8a8a">:naive_datetime &#160;&#160;&#160;&#160;</text>
<path fill="none" stroke="black" d="M422,-54.98C422,-54.98 672,-54.98 672,-54.98 678,-54.98 684,-60.98 684,-66.98 684,-66.98 684,-268.98 684,-268.98 684,-274.98 678,-280.98 672,-280.98 672,-280.98 422,-280.98 422,-280.98 416,-280.98 410,-274.98 410,-268.98 410,-268.98 410,-66.98 410,-66.98 410,-60.98 416,-54.98 422,-54.98"/>
</g>
<!-- CatOnDuty.Employees.Sentry&#45;&gt;CatOnDuty.Employees.Team -->
<g id="edge1" class="edge">
<title>CatOnDuty.Employees.Sentry:e&#45;&gt;CatOnDuty.Employees.Team:w</title>
<path fill="none" stroke="black" d="M307,-231.48C373.33,-231.48 343.67,-123.48 410,-123.48"/>
</g>
<!-- CatOnDuty.Employees.Team&#45;&gt;CatOnDuty.Employees.Sentry -->
<g id="edge2" class="edge">
<title>CatOnDuty.Employees.Team:e&#45;&gt;CatOnDuty.Employees.Sentry:w</title>
<path fill="none" stroke="black" d="M682,-204.48C693.36,-204.48 326.07,-26.55 315,-23.98 252.01,-9.33 70.04,21.43 24,-23.98 4.28,-43.42 -6.08,-82.99 11.84,-93.73"/>
<polygon fill="black" stroke="black" points="10.98,-97.12 21.53,-96.11 12.66,-90.33 10.98,-97.12"/>
</g>
<!-- Ecto.Migration.SchemaMigration -->
<g id="node3" class="node">
<title>Ecto.Migration.SchemaMigration</title>
<text text-anchor="start" x="12.75" y="-429.88" font-family="Roboto Mono" font-size="18.00"> &#160;&#160;Ecto.Migration.SchemaMigration &#160;&#160;</text>
<polyline fill="none" stroke="black" points="9,-388.98 321,-388.98"/>
<text text-anchor="start" x="104.62" y="-400.68" font-family="Roboto Mono" font-style="italic" font-size="14.00">schema_migrations</text>
<text text-anchor="start" x="13" y="-372.68" font-family="Roboto Mono" font-size="14.00">:version &#160;&#160;&#160;&#160;&#160;&#160;&#160;&#160;</text>
<text text-anchor="start" x="99.25" y="-372.68" font-family="Roboto Mono" font-style="italic" font-size="14.00" fill="#8a8a8a">:integer &#160;&#160;&#160;&#160;&#160;&#160;&#160;&#160;&#160;&#160;&#160;</text>
<text text-anchor="start" x="13" y="-345.68" font-family="Roboto Mono" font-size="14.00">:inserted_at &#160;&#160;&#160;&#160;</text>
<text text-anchor="start" x="109.75" y="-345.68" font-family="Roboto Mono" font-style="italic" font-size="14.00" fill="#8a8a8a">:naive_datetime &#160;&#160;&#160;&#160;</text>
<path fill="none" stroke="black" d="M20,-333.98C20,-333.98 310,-333.98 310,-333.98 316,-333.98 322,-339.98 322,-345.98 322,-345.98 322,-439.98 322,-439.98 322,-445.98 316,-451.98 310,-451.98 310,-451.98 20,-451.98 20,-451.98 14,-451.98 8,-445.98 8,-439.98 8,-439.98 8,-345.98 8,-345.98 8,-339.98 14,-333.98 20,-333.98"/>
</g>
<!-- Oban.Job -->
<g id="node4" class="node">
<title>Oban.Job</title>
<text text-anchor="start" x="112.12" y="-1005.88" font-family="Roboto Mono" font-size="18.00"> &#160;&#160;Oban.Job &#160;&#160;</text>
<polyline fill="none" stroke="black" points="39,-964.98 291,-964.98"/>
<text text-anchor="start" x="132.75" y="-976.68" font-family="Roboto Mono" font-style="italic" font-size="14.00">oban_jobs</text>
<text text-anchor="start" x="43" y="-948.68" font-family="Roboto Mono" font-size="14.00">:id &#160;&#160;&#160;&#160;&#160;&#160;&#160;&#160;&#160;&#160;&#160;&#160;&#160;&#160;</text>
<text text-anchor="start" x="115" y="-948.68" font-family="Roboto Mono" font-style="italic" font-size="14.00" fill="#8a8a8a">:id &#160;&#160;&#160;&#160;&#160;&#160;&#160;&#160;&#160;&#160;&#160;&#160;&#160;&#160;&#160;&#160;&#160;&#160;&#160;</text>
<text text-anchor="start" x="43" y="-921.68" font-family="Roboto Mono" font-size="14.00">:state &#160;&#160;&#160;&#160;&#160;&#160;&#160;&#160;&#160;&#160;&#160;</text>
<text text-anchor="start" x="124.75" y="-921.68" font-family="Roboto Mono" font-style="italic" font-size="14.00" fill="#8a8a8a">:string &#160;&#160;&#160;&#160;&#160;&#160;&#160;&#160;&#160;&#160;&#160;&#160;&#160;&#160;&#160;</text>
<text text-anchor="start" x="43" y="-894.68" font-family="Roboto Mono" font-size="14.00">:queue &#160;&#160;&#160;&#160;&#160;&#160;&#160;&#160;&#160;&#160;&#160;</text>
<text text-anchor="start" x="134.5" y="-894.68" font-family="Roboto Mono" font-style="italic" font-size="14.00" fill="#8a8a8a">:string &#160;&#160;&#160;&#160;&#160;&#160;&#160;&#160;&#160;&#160;&#160;&#160;&#160;&#160;&#160;</text>
<text text-anchor="start" x="43" y="-867.68" font-family="Roboto Mono" font-size="14.00">:worker &#160;&#160;&#160;&#160;&#160;&#160;&#160;&#160;&#160;&#160;</text>
<text text-anchor="start" x="135.25" y="-867.68" font-family="Roboto Mono" font-style="italic" font-size="14.00" fill="#8a8a8a">:string &#160;&#160;&#160;&#160;&#160;&#160;&#160;&#160;&#160;&#160;&#160;&#160;&#160;&#160;&#160;</text>
<text text-anchor="start" x="43" y="-840.68" font-family="Roboto Mono" font-size="14.00">:args &#160;&#160;&#160;&#160;&#160;&#160;&#160;&#160;&#160;&#160;&#160;&#160;</text>
<text text-anchor="start" x="124" y="-840.68" font-family="Roboto Mono" font-style="italic" font-size="14.00" fill="#8a8a8a">:map &#160;&#160;&#160;&#160;&#160;&#160;&#160;&#160;&#160;&#160;&#160;&#160;&#160;&#160;&#160;&#160;&#160;&#160;</text>
<text text-anchor="start" x="43" y="-813.68" font-family="Roboto Mono" font-size="14.00">:meta &#160;&#160;&#160;&#160;&#160;&#160;&#160;&#160;&#160;&#160;&#160;&#160;</text>
<text text-anchor="start" x="129.25" y="-813.68" font-family="Roboto Mono" font-style="italic" font-size="14.00" fill="#8a8a8a">:map &#160;&#160;&#160;&#160;&#160;&#160;&#160;&#160;&#160;&#160;&#160;&#160;&#160;&#160;&#160;&#160;&#160;&#160;</text>
<text text-anchor="start" x="43" y="-786.68" font-family="Roboto Mono" font-size="14.00">:tags &#160;&#160;&#160;&#160;&#160;&#160;&#160;&#160;&#160;&#160;&#160;&#160;</text>
<text text-anchor="start" x="123.25" y="-786.68" font-family="Roboto Mono" font-style="italic" font-size="14.00" fill="#8a8a8a">{:array, :string} &#160;&#160;&#160;&#160;&#160;</text>
<text text-anchor="start" x="43" y="-759.68" font-family="Roboto Mono" font-size="14.00">:errors &#160;&#160;&#160;&#160;&#160;&#160;&#160;&#160;&#160;&#160;</text>
<text text-anchor="start" x="128.5" y="-759.68" font-family="Roboto Mono" font-style="italic" font-size="14.00" fill="#8a8a8a">{:array, :map} &#160;&#160;&#160;&#160;&#160;&#160;&#160;&#160;</text>
<text text-anchor="start" x="43" y="-732.68" font-family="Roboto Mono" font-size="14.00">:attempt &#160;&#160;&#160;&#160;&#160;&#160;&#160;&#160;&#160;</text>
<text text-anchor="start" x="136.75" y="-732.68" font-family="Roboto Mono" font-style="italic" font-size="14.00" fill="#8a8a8a">:integer &#160;&#160;&#160;&#160;&#160;&#160;&#160;&#160;&#160;&#160;&#160;&#160;&#160;&#160;</text>
<text text-anchor="start" x="43" y="-705.68" font-family="Roboto Mono" font-size="14.00">:attempted_by &#160;&#160;&#160;&#160;</text>
<text text-anchor="start" x="156.25" y="-705.68" font-family="Roboto Mono" font-style="italic" font-size="14.00" fill="#8a8a8a">{:array, :string} &#160;&#160;&#160;&#160;&#160;</text>
<text text-anchor="start" x="43" y="-678.68" font-family="Roboto Mono" font-size="14.00">:max_attempts &#160;&#160;&#160;&#160;</text>
<text text-anchor="start" x="158.5" y="-678.68" font-family="Roboto Mono" font-style="italic" font-size="14.00" fill="#8a8a8a">:integer &#160;&#160;&#160;&#160;&#160;&#160;&#160;&#160;&#160;&#160;&#160;&#160;&#160;&#160;</text>
<text text-anchor="start" x="43" y="-651.68" font-family="Roboto Mono" font-size="14.00">:priority &#160;&#160;&#160;&#160;&#160;&#160;&#160;&#160;</text>
<text text-anchor="start" x="129.25" y="-651.68" font-family="Roboto Mono" font-style="italic" font-size="14.00" fill="#8a8a8a">:integer &#160;&#160;&#160;&#160;&#160;&#160;&#160;&#160;&#160;&#160;&#160;&#160;&#160;&#160;</text>
<text text-anchor="start" x="43" y="-624.68" font-family="Roboto Mono" font-size="14.00">:attempted_at &#160;&#160;&#160;&#160;</text>
<text text-anchor="start" x="153.25" y="-624.68" font-family="Roboto Mono" font-style="italic" font-size="14.00" fill="#8a8a8a">:utc_datetime_usec &#160;&#160;&#160;&#160;</text>
<text text-anchor="start" x="43" y="-597.68" font-family="Roboto Mono" font-size="14.00">:cancelled_at &#160;&#160;&#160;&#160;</text>
<text text-anchor="start" x="146.5" y="-597.68" font-family="Roboto Mono" font-style="italic" font-size="14.00" fill="#8a8a8a">:utc_datetime_usec &#160;&#160;&#160;&#160;</text>
<text text-anchor="start" x="42.75" y="-570.68" font-family="Roboto Mono" font-size="14.00">:completed_at &#160;&#160;&#160;&#160;</text>
<text text-anchor="start" x="153.75" y="-570.68" font-family="Roboto Mono" font-style="italic" font-size="14.00" fill="#8a8a8a">:utc_datetime_usec &#160;&#160;&#160;&#160;</text>
<text text-anchor="start" x="43" y="-543.68" font-family="Roboto Mono" font-size="14.00">:discarded_at &#160;&#160;&#160;&#160;</text>
<text text-anchor="start" x="147.25" y="-543.68" font-family="Roboto Mono" font-style="italic" font-size="14.00" fill="#8a8a8a">:utc_datetime_usec &#160;&#160;&#160;&#160;</text>
<text text-anchor="start" x="43" y="-516.68" font-family="Roboto Mono" font-size="14.00">:inserted_at &#160;&#160;&#160;&#160;&#160;</text>
<text text-anchor="start" x="143.5" y="-516.68" font-family="Roboto Mono" font-style="italic" font-size="14.00" fill="#8a8a8a">:utc_datetime_usec &#160;&#160;&#160;&#160;</text>
<text text-anchor="start" x="43" y="-489.68" font-family="Roboto Mono" font-size="14.00">:scheduled_at &#160;&#160;&#160;&#160;</text>
<text text-anchor="start" x="152.5" y="-489.68" font-family="Roboto Mono" font-style="italic" font-size="14.00" fill="#8a8a8a">:utc_datetime_usec &#160;&#160;&#160;&#160;</text>
<path fill="none" stroke="black" d="M50,-477.98C50,-477.98 280,-477.98 280,-477.98 286,-477.98 292,-483.98 292,-489.98 292,-489.98 292,-1015.98 292,-1015.98 292,-1021.98 286,-1027.98 280,-1027.98 280,-1027.98 50,-1027.98 50,-1027.98 44,-1027.98 38,-1021.98 38,-1015.98 38,-1015.98 38,-489.98 38,-489.98 38,-483.98 44,-477.98 50,-477.98"/>
</g>
</g>
</svg>
